# xmcd CD database file
#
# Track frame offsets:
#	150
#	17192
#	32360
#	49251
#	66163
#	82002
#	98862
#	114396
#	129380
#	146153
#	157832
#	171377
#
# Disc length: 2495 seconds
#
# Revision: 0
# Processed by: cddbd v1.5.2PL0 Copyright (c) Steve Scherf et al.
# Submitted via: CDex 1.91
#
DISCID=9e09bd0c
DTITLE=Brent Moyer - Music Tells The Truth
DYEAR=2017
DGENRE=Country
TTITLE0=Music Tells The Truth
TTITLE1=Why Fight It    
TTITLE2=We're Walking Each Other Home
TTITLE3=On Captiva
TTITLE4=Boston To Austin
TTITLE5=Never Too Late
TTITLE6=What's Going On With You
TTITLE7=Dig Two Graves
TTITLE8=Easy Side
TTITLE9=Kay, Que Paso
TTITLE10=So Much 
TTITLE11=Can't Get There From Here 
EXTD=YEAR: 2017
EXTT0=
EXTT1=
EXTT2=
EXTT3=
EXTT4=
EXTT5=
EXTT6=
EXTT7=
EXTT8=
EXTT9=
EXTT10=
EXTT11=
PLAYORDER=
